<svg width="1440" height="1024" viewBox="0 0 1440 1024" fill="none" xmlns="http://www.w3.org/2000/svg">
<rect width="1440" height="1024" fill="white"/>
<g opacity="0.5" filter="url(#filter0_dd_9_47)">
<rect x="598" y="355" width="102" height="338" rx="20" transform="rotate(-90 598 355)" fill="white"/>
</g>
<path d="M633.096 293.88V327H625.752V293.88H633.096ZM643.08 293.88V299.64H615.816V293.88H643.08ZM649.627 303.288L650.491 307.992L651.163 308.616V327H644.059V303.288H649.627ZM661.195 302.664L660.523 309.24H658.555C657.435 309.24 656.267 309.4 655.051 309.72C653.835 310.04 652.299 310.52 650.443 311.16L649.963 307.176C651.627 305.704 653.307 304.584 655.003 303.816C656.699 303.048 658.347 302.664 659.947 302.664H661.195ZM676.36 302.664C680.36 302.664 683.224 303.352 684.952 304.728C686.712 306.072 687.592 308.088 687.592 310.776C687.624 312.952 687.08 314.584 685.96 315.672C684.84 316.728 682.904 317.256 680.152 317.256H666.904V313.272H678.184C679.272 313.272 679.96 313.048 680.248 312.6C680.568 312.12 680.728 311.464 680.728 310.632C680.696 309.512 680.36 308.744 679.72 308.328C679.112 307.88 678.072 307.656 676.6 307.656C675.288 307.656 674.264 307.832 673.528 308.184C672.792 308.536 672.28 309.208 671.992 310.2C671.704 311.192 671.56 312.632 671.56 314.52C671.56 316.504 671.736 318.04 672.088 319.128C672.44 320.184 673.032 320.92 673.864 321.336C674.728 321.752 675.912 321.96 677.416 321.96C678.504 321.96 679.848 321.928 681.448 321.864C683.08 321.768 684.712 321.624 686.344 321.432L687.016 325.8C686.088 326.248 685.032 326.6 683.848 326.856C682.664 327.112 681.448 327.288 680.2 327.384C678.952 327.512 677.752 327.576 676.6 327.576C673.592 327.576 671.16 327.144 669.304 326.28C667.48 325.384 666.152 324.024 665.32 322.2C664.52 320.376 664.12 318.04 664.12 315.192C664.12 312.088 664.536 309.624 665.368 307.8C666.2 305.976 667.512 304.664 669.304 303.864C671.096 303.064 673.448 302.664 676.36 302.664ZM716.126 303.288L709.934 311.544C709.646 311.992 709.278 312.424 708.83 312.84C708.382 313.256 708.014 313.56 707.726 313.752V313.944C708.014 314.104 708.382 314.44 708.83 314.952C709.278 315.464 709.646 315.976 709.934 316.488L716.942 327H709.022L700.91 313.656L708.206 303.288H716.126ZM700.286 293.4L700.334 307.272C700.334 308.392 700.27 309.48 700.142 310.536C700.014 311.592 699.822 312.632 699.566 313.656C699.79 314.648 699.966 315.672 700.094 316.728C700.222 317.752 700.286 318.712 700.286 319.608V327H693.182V293.4H700.286ZM703.598 311.64V315.96H698.078V311.64H703.598ZM733.05 308.184L741.21 308.232L728.106 322.152L719.946 322.104L733.05 308.184ZM741.45 322.104V327H719.946V322.104H741.45ZM741.21 303.288V308.232H720.138V303.288H741.21ZM759.708 302.664C761.692 302.664 763.372 302.936 764.748 303.48C766.124 303.992 767.164 304.888 767.868 306.168C768.604 307.416 768.972 309.144 768.972 311.352V327H763.308L762.3 321.864L761.82 321.144V311.304C761.82 310.184 761.548 309.368 761.004 308.856C760.492 308.344 759.5 308.088 758.028 308.088C756.812 308.088 755.292 308.136 753.468 308.232C751.644 308.296 749.772 308.392 747.852 308.52L747.18 303.816C748.332 303.592 749.66 303.4 751.164 303.24C752.668 303.08 754.172 302.952 755.676 302.856C757.18 302.728 758.524 302.664 759.708 302.664ZM766.044 312.408L765.996 316.392L755.436 316.44C754.572 316.44 753.948 316.648 753.564 317.064C753.212 317.48 753.036 318.04 753.036 318.744V319.896C753.036 320.696 753.26 321.32 753.708 321.768C754.156 322.184 754.876 322.392 755.868 322.392C756.7 322.392 757.596 322.216 758.556 321.864C759.548 321.512 760.524 321.016 761.484 320.376C762.444 319.736 763.292 318.984 764.028 318.12V321.192C763.74 321.672 763.308 322.28 762.732 323.016C762.188 323.72 761.484 324.424 760.62 325.128C759.756 325.8 758.748 326.376 757.596 326.856C756.444 327.336 755.132 327.576 753.66 327.576C752.22 327.576 750.924 327.32 749.772 326.808C748.62 326.296 747.708 325.544 747.036 324.552C746.364 323.56 746.028 322.328 746.028 320.856V318.408C746.028 316.52 746.668 315.048 747.948 313.992C749.228 312.936 750.988 312.408 753.228 312.408H766.044ZM817.485 293.88L812.061 324.984C811.965 325.56 811.677 326.04 811.197 326.424C810.717 326.808 810.141 327 809.469 327H802.605C801.965 327 801.389 326.808 800.877 326.424C800.397 326.04 800.109 325.544 800.013 324.936L796.317 303.384C796.221 302.648 796.125 301.928 796.029 301.224C795.933 300.488 795.837 299.768 795.741 299.064H794.829C794.765 299.768 794.685 300.488 794.589 301.224C794.493 301.96 794.397 302.68 794.301 303.384L790.605 324.936C790.509 325.544 790.205 326.04 789.693 326.424C789.213 326.808 788.653 327 788.013 327H781.101C780.461 327 779.885 326.808 779.373 326.424C778.893 326.04 778.605 325.56 778.509 324.984L773.085 293.88H780.477L783.933 316.92C784.029 317.624 784.109 318.376 784.173 319.176C784.237 319.976 784.301 320.824 784.365 321.72H785.277C785.405 320.952 785.533 320.152 785.661 319.32C785.821 318.456 785.949 317.656 786.045 316.92L789.693 296.136C789.789 295.464 790.077 294.92 790.557 294.504C791.037 294.088 791.613 293.88 792.285 293.88H798.333C799.005 293.88 799.565 294.088 800.013 294.504C800.493 294.92 800.781 295.464 800.877 296.136L804.573 316.968C804.701 317.736 804.829 318.536 804.957 319.368C805.085 320.168 805.197 320.952 805.293 321.72H806.253C806.317 320.952 806.381 320.152 806.445 319.32C806.541 318.488 806.621 317.72 806.685 317.016L810.093 293.88H817.485ZM833.083 302.664C836.059 302.664 838.443 303.08 840.235 303.912C842.027 304.712 843.307 306.024 844.075 307.848C844.875 309.672 845.275 312.12 845.275 315.192C845.275 318.2 844.875 320.616 844.075 322.44C843.307 324.264 842.027 325.576 840.235 326.376C838.443 327.176 836.059 327.576 833.083 327.576C830.139 327.576 827.755 327.176 825.931 326.376C824.139 325.576 822.843 324.264 822.043 322.44C821.243 320.616 820.843 318.2 820.843 315.192C820.843 312.12 821.243 309.672 822.043 307.848C822.843 306.024 824.139 304.712 825.931 303.912C827.755 303.08 830.139 302.664 833.083 302.664ZM833.083 307.848C831.867 307.848 830.907 308.056 830.203 308.472C829.499 308.888 829.003 309.624 828.715 310.68C828.427 311.736 828.283 313.24 828.283 315.192C828.283 317.112 828.427 318.6 828.715 319.656C829.003 320.712 829.499 321.448 830.203 321.864C830.907 322.248 831.867 322.44 833.083 322.44C834.299 322.44 835.259 322.248 835.963 321.864C836.667 321.448 837.163 320.712 837.451 319.656C837.739 318.6 837.883 317.112 837.883 315.192C837.883 313.24 837.739 311.736 837.451 310.68C837.163 309.624 836.667 308.888 835.963 308.472C835.259 308.056 834.299 307.848 833.083 307.848ZM856.644 303.288L857.508 307.992L858.18 308.616V327H851.076V303.288H856.644ZM868.212 302.664L867.54 309.24H865.572C864.452 309.24 863.284 309.4 862.068 309.72C860.852 310.04 859.316 310.52 857.46 311.16L856.98 307.176C858.644 305.704 860.324 304.584 862.02 303.816C863.716 303.048 865.364 302.664 866.964 302.664H868.212ZM879.672 293.4L879.624 319.416C879.624 320.216 879.864 320.824 880.344 321.24C880.824 321.624 881.528 321.816 882.456 321.816H884.376L885.192 326.616C884.808 326.808 884.264 326.968 883.56 327.096C882.856 327.256 882.136 327.368 881.4 327.432C880.664 327.528 880.04 327.576 879.528 327.576C877.384 327.576 875.688 327.016 874.44 325.896C873.192 324.776 872.568 323.208 872.568 321.192V293.4H879.672ZM897.342 302.664C899.006 302.664 900.606 302.904 902.142 303.384C903.71 303.864 905.086 304.648 906.27 305.736L905.79 309C904.702 308.68 903.726 308.392 902.862 308.136C901.998 307.88 900.99 307.752 899.838 307.752C898.846 307.752 898.046 307.928 897.438 308.28C896.83 308.632 896.382 309.32 896.094 310.344C895.806 311.368 895.662 312.888 895.662 314.904C895.662 316.792 895.79 318.232 896.046 319.224C896.334 320.184 896.766 320.856 897.342 321.24C897.95 321.592 898.718 321.768 899.646 321.768C900.478 321.768 901.198 321.688 901.806 321.528C902.414 321.336 903.022 321.064 903.63 320.712C904.238 320.328 904.926 319.864 905.694 319.32L906.222 322.824C905.262 324.168 904.014 325.304 902.478 326.232C900.942 327.128 899.054 327.576 896.814 327.576C893.774 327.576 891.598 326.488 890.286 324.312C889.006 322.136 888.366 319.016 888.366 314.952C888.366 311.784 888.686 309.32 889.326 307.56C889.998 305.768 891.006 304.504 892.35 303.768C893.694 303.032 895.358 302.664 897.342 302.664ZM912.078 293.4V327H906.462L905.742 322.632L904.974 322.104V306.552L905.262 305.928C905.166 304.936 905.086 303.944 905.022 302.952C904.99 301.928 904.974 300.888 904.974 299.832V293.4H912.078Z" fill="#E047B2"/>
<defs>
<filter id="filter0_dd_9_47" x="594" y="250" width="346" height="110" filterUnits="userSpaceOnUse" color-interpolation-filters="sRGB">
<feFlood flood-opacity="0" result="BackgroundImageFix"/>
<feColorMatrix in="SourceAlpha" type="matrix" values="0 0 0 0 0 0 0 0 0 0 0 0 0 0 0 0 0 0 127 0" result="hardAlpha"/>
<feMorphology radius="1" operator="dilate" in="SourceAlpha" result="effect1_dropShadow_9_47"/>
<feOffset dy="1"/>
<feGaussianBlur stdDeviation="1.5"/>
<feColorMatrix type="matrix" values="0 0 0 0 0 0 0 0 0 0 0 0 0 0 0 0 0 0 0.15 0"/>
<feBlend mode="normal" in2="BackgroundImageFix" result="effect1_dropShadow_9_47"/>
<feColorMatrix in="SourceAlpha" type="matrix" values="0 0 0 0 0 0 0 0 0 0 0 0 0 0 0 0 0 0 127 0" result="hardAlpha"/>
<feOffset dy="1"/>
<feGaussianBlur stdDeviation="1"/>
<feColorMatrix type="matrix" values="0 0 0 0 0 0 0 0 0 0 0 0 0 0 0 0 0 0 0.3 0"/>
<feBlend mode="normal" in2="effect1_dropShadow_9_47" result="effect2_dropShadow_9_47"/>
<feBlend mode="normal" in="SourceGraphic" in2="effect2_dropShadow_9_47" result="shape"/>
</filter>
</defs>
</svg>
